<?xml version="1.0" encoding="UTF-8"?>
<svg xmlns="http://www.w3.org/2000/svg" width="1526" height="2272" viewBox="0 0 1526 2272" shape-rendering="geometricPrecision">
  <rect width="100%" height="100%" fill="#000000"/>
  <path d="M62,2259 L62,2262 L63,2262 L63,2259Z M62,2242 L62,2248 L63,2248 L63,2242Z M62,2219 L62,2233 L63,2233 L63,2219Z M0,2175 L0,2179 L3,2179 L8,2183 L13,2185 L47,2210 L51,2211 L49,2208 L46,2207 L45,2205 L32,2197 L31,2195 L27,2193 L23,2189 L20,2188 L15,2183 L12,2182 L6,2176Z M0,2129 L0,2133 L2,2133 L7,2136 L31,2155 L50,2167 L56,2172 L59,2173 L58,2171 L10,2136 L9,2134 L2,2129Z M1525,2116 L1488,2146 L1488,2212 L1489,2213 L1488,2215 L1488,2271 L1491,2271 L1491,2217 L1503,2207 L1510,2203 L1514,2198 L1514,2197 L1511,2198 L1493,2213 L1491,2212 L1491,2194 L1490,2193 L1491,2147 L1496,2142 L1500,2140 L1525,2119Z M1313,2006 L1309,2007 L1305,2011 L1301,2013 L1301,2014 L1304,2013 L1313,2007Z M1525,1974 L1513,1984 L1511,1987 L1508,1988 L1506,1991 L1474,2017 L1473,2019 L1381,2094 L1381,2271 L1385,2271 L1385,2096 L1434,2057 L1440,2051 L1475,2023 L1477,2020 L1493,2008 L1495,2005 L1514,1990 L1516,1987 L1520,1985 L1525,1980Z M877,1967 L884,1964 L891,1965 L899,1973 L898,1980 L892,1986 L889,1987 L882,1987 L878,1985 L872,1978 L872,1974Z M872,1964 L867,1970 L866,1978 L870,1986 L880,1991 L892,1991 L896,1989 L900,1991 L971,2052 L1006,2080 L1008,2083 L1014,2087 L1027,2099 L1047,2114 L1047,2121 L1046,2122 L1046,2211 L1052,2218 L1058,2222 L1059,2224 L1072,2234 L1106,2264 L1115,2271 L1120,2271 L1049,2211 L1050,2208 L1050,2113 L1034,2101 L1017,2085 L1005,2076 L996,2067 L976,2051 L975,2049 L971,2047 L968,2043 L958,2036 L938,2019 L937,2017 L927,2010 L925,2007 L906,1992 L901,1986 L904,1978 L904,1973 L899,1965 L890,1960 L881,1960Z M343,1939 L348,1934 L351,1933 L362,1934 L368,1940 L368,1948 L363,1954 L351,1955 L347,1953 L343,1949 L342,1946Z M368,1932 L359,1928 L352,1928 L342,1932 L339,1935 L337,1940 L337,1948 L341,1955 L332,1964 L319,1974 L317,1977 L292,1997 L268,2019 L264,2021 L262,2024 L246,2037 L246,2171 L244,2174 L241,2175 L229,2186 L195,2213 L193,2212 L193,2192 L192,2191 L192,2172 L193,2171 L193,2110 L170,2091 L162,2083 L148,2073 L146,2073 L146,2076 L149,2076 L154,2080 L156,2083 L189,2111 L189,2271 L192,2271 L193,2219 L211,2206 L212,2204 L224,2195 L225,2193 L229,2191 L230,2189 L234,2187 L235,2185 L239,2183 L250,2173 L250,2039 L262,2030 L263,2028 L270,2023 L272,2020 L285,2009 L291,2005 L342,1959 L347,1958 L352,1960 L359,1960 L366,1958 L372,1952 L374,1948 L374,1941 L371,1935Z M911,1830 L917,1827 L925,1827 L929,1829 L934,1836 L934,1840 L932,1844 L926,1849 L919,1850 L912,1847 L908,1843 L907,1840 L908,1833Z M1409,1819 L1410,1822 L1410,1841 L1411,1842 L1411,1850 L1412,1850 L1413,1840 L1411,1835 L1411,1820Z M1154,1758 L1159,1764 L1163,1766 L1161,1763 L1159,1763Z M0,1709 L0,1714 L4,1715 L32,1738 L35,1739 L44,1747 L61,1759 L61,1868 L27,1893 L25,1896 L25,1913 L26,1914 L26,1927 L25,1928 L25,2074 L26,2075 L26,2084 L25,2085 L25,2091 L27,2095 L40,2104 L48,2112 L70,2128 L72,2131 L102,2155 L102,2271 L105,2271 L105,2160 L104,2159 L105,2156 L104,2153 L30,2092 L30,2074 L29,2073 L29,1896 L65,1869 L65,1758 L32,1733 L3,1709Z M960,1692 L965,1690 L972,1690 L976,1692 L981,1699 L981,1705 L979,1708 L972,1712 L963,1712 L958,1709 L956,1706 L955,1700Z M962,1686 L953,1691 L950,1696 L949,1702 L951,1709 L958,1715 L964,1717 L975,1717 L978,1720 L987,1740 L987,1742 L989,1744 L989,1746 L991,1748 L991,1750 L994,1754 L1000,1766 L1000,1768 L1002,1769 L1002,1771 L1010,1779 L1014,1781 L1041,1804 L1050,1810 L1052,1813 L1063,1821 L1070,1828 L1127,1874 L1127,2013 L1137,2026 L1137,2028 L1145,2039 L1147,2043 L1148,2055 L1146,2058 L1144,2058 L1136,2065 L1131,2065 L1131,2067 L1123,2075 L1111,2085 L1108,2086 L1099,2093 L1098,2092 L1098,2042 L1099,2039 L1091,2031 L1083,2025 L1081,2022 L1077,2020 L1074,2016 L1038,1986 L1029,1977 L1016,1967 L1015,1965 L1010,1962 L1009,1960 L988,1942 L988,1894 L969,1879 L967,1876 L954,1866 L945,1857 L942,1856 L936,1851 L936,1847 L939,1842 L939,1834 L936,1829 L930,1824 L923,1822 L917,1822 L907,1826 L902,1834 L903,1845 L908,1851 L912,1852 L914,1854 L927,1854 L930,1852 L933,1852 L984,1896 L984,1943 L1046,1996 L1055,2005 L1060,2008 L1067,2015 L1074,2020 L1075,2022 L1096,2039 L1096,2113 L1097,2114 L1097,2136 L1101,2134 L1100,2126 L1101,2125 L1101,2098 L1102,2096 L1133,2072 L1136,2067 L1146,2060 L1147,2058 L1151,2058 L1152,2057 L1152,2043 L1151,2040 L1146,2034 L1138,2020 L1132,2012 L1132,1880 L1131,1879 L1132,1872 L1106,1852 L1099,1845 L1083,1833 L1076,1826 L1066,1819 L1048,1803 L1028,1788 L1027,1786 L1024,1785 L1022,1782 L1004,1769 L1001,1760 L996,1752 L996,1750 L991,1742 L990,1737 L983,1725 L983,1722 L981,1720 L980,1715 L985,1710 L988,1704 L988,1700 L985,1693 L981,1689 L972,1685Z M232,1609 L243,1608 L251,1614 L251,1623 L247,1628 L241,1631 L236,1631 L231,1629 L226,1625 L224,1621 L225,1615 L227,1612Z M244,1604 L235,1603 L224,1608 L219,1616 L219,1622 L223,1630 L157,1688 L157,1844 L104,1887 L100,1889 L85,1902 L76,1908 L67,1917 L64,1918 L66,1926 L65,1928 L65,2012 L66,2013 L66,2066 L67,2067 L67,2072 L90,2089 L107,2099 L110,2102 L112,2102 L112,2100 L110,2098 L103,2094 L93,2086 L80,2079 L70,2071 L69,1936 L68,1935 L68,1920 L72,1915 L98,1896 L136,1864 L159,1847 L160,1845 L159,1843 L160,1841 L160,1834 L159,1833 L160,1829 L160,1813 L159,1812 L160,1808 L160,1704 L159,1703 L160,1689 L185,1668 L199,1654 L208,1648 L210,1645 L225,1632 L234,1635 L241,1635 L245,1634 L253,1629 L256,1623 L255,1612 L249,1606Z M1079,1504 L1084,1499 L1095,1498 L1100,1500 L1103,1503 L1105,1510 L1103,1515 L1098,1519 L1094,1520 L1086,1519 L1079,1513 L1078,1510Z M1086,1493 L1078,1497 L1075,1500 L1072,1509 L1075,1517 L1079,1521 L1086,1524 L1091,1524 L1097,1526 L1104,1551 L1106,1553 L1109,1565 L1115,1579 L1115,1584 L1116,1585 L1117,1635 L1118,1636 L1118,1646 L1119,1647 L1119,1672 L1120,1675 L1125,1678 L1173,1719 L1177,1721 L1179,1724 L1214,1752 L1223,1761 L1238,1773 L1238,1823 L1237,1824 L1227,1818 L1178,1778 L1190,1790 L1226,1819 L1228,1822 L1237,1828 L1237,1867 L1236,1868 L1236,1883 L1237,1884 L1237,1893 L1236,1894 L1236,1912 L1237,1913 L1237,1921 L1236,1922 L1236,2085 L1234,2088 L1217,2100 L1215,2103 L1212,2104 L1200,2115 L1184,2127 L1177,2134 L1155,2151 L1151,2156 L1151,2201 L1163,2211 L1171,2220 L1229,2271 L1233,2271 L1191,2234 L1173,2216 L1155,2201 L1156,2156 L1236,2091 L1238,2092 L1239,2115 L1225,2129 L1227,2129 L1242,2116 L1242,2064 L1241,2063 L1241,1960 L1242,1959 L1242,1942 L1266,1925 L1275,1916 L1272,1915 L1255,1927 L1243,1937 L1241,1936 L1241,1911 L1242,1910 L1242,1772 L1218,1752 L1216,1749 L1212,1747 L1204,1739 L1180,1720 L1172,1712 L1168,1710 L1166,1707 L1123,1673 L1123,1654 L1122,1653 L1122,1637 L1121,1636 L1121,1620 L1120,1619 L1119,1579 L1113,1567 L1113,1564 L1110,1558 L1108,1549 L1105,1542 L1105,1539 L1100,1526 L1100,1524 L1110,1514 L1111,1508 L1108,1500 L1102,1495 L1097,1493Z M1062,1384 L1070,1380 L1075,1380 L1081,1383 L1085,1387 L1086,1390 L1085,1396 L1077,1403 L1067,1403 L1065,1402 L1058,1395 L1058,1389Z M1059,1379 L1054,1386 L1053,1394 L1055,1400 L1060,1405 L1068,1408 L1075,1408 L1085,1405 L1100,1418 L1110,1425 L1117,1432 L1138,1448 L1157,1465 L1161,1467 L1172,1477 L1177,1480 L1179,1483 L1181,1484 L1268,1484 L1407,1600 L1407,1811 L1378,1834 L1371,1841 L1371,1844 L1378,1840 L1411,1814 L1411,1604 L1413,1603 L1418,1608 L1421,1609 L1422,1611 L1427,1614 L1429,1614 L1436,1622 L1445,1629 L1448,1629 L1448,1628 L1436,1618 L1430,1615 L1419,1604 L1413,1601 L1400,1588 L1350,1547 L1343,1540 L1337,1536 L1336,1534 L1326,1527 L1325,1525 L1321,1523 L1313,1515 L1303,1508 L1302,1506 L1298,1504 L1273,1482 L1271,1481 L1184,1481 L1155,1458 L1149,1452 L1139,1445 L1088,1402 L1091,1395 L1091,1389 L1089,1384 L1084,1379 L1077,1376 L1066,1376Z M1525,1248 L1509,1261 L1506,1262 L1505,1264 L1505,1358 L1518,1369 L1520,1369 L1525,1374 L1525,1369 L1509,1356 L1509,1293 L1510,1292 L1510,1288 L1509,1287 L1509,1282 L1510,1281 L1509,1266 L1525,1252Z M939,1249 L948,1242 L955,1242 L957,1244 L959,1244 L963,1248 L965,1252 L965,1256 L964,1259 L958,1264 L946,1265 L937,1256 L937,1252Z M932,1248 L931,1252 L932,1259 L938,1267 L940,1267 L945,1270 L958,1270 L963,1267 L967,1267 L969,1270 L972,1271 L976,1275 L1004,1293 L1011,1294 L1026,1300 L1036,1302 L1042,1305 L1045,1305 L1051,1308 L1066,1312 L1077,1323 L1090,1334 L1094,1336 L1103,1345 L1138,1373 L1139,1375 L1175,1404 L1176,1406 L1187,1415 L1191,1417 L1192,1419 L1198,1423 L1210,1434 L1230,1434 L1231,1435 L1235,1434 L1261,1434 L1259,1431 L1238,1431 L1237,1430 L1219,1431 L1211,1429 L1192,1414 L1190,1411 L1179,1403 L1160,1386 L1138,1369 L1136,1366 L1113,1348 L1112,1346 L1106,1342 L1094,1331 L1090,1329 L1068,1309 L1044,1301 L1041,1301 L1038,1299 L1031,1298 L1025,1295 L1008,1291 L986,1277 L980,1272 L969,1266 L968,1262 L971,1257 L971,1251 L968,1245 L962,1240 L958,1238 L944,1238 L935,1243Z M1108,963 L1115,957 L1125,956 L1128,957 L1134,963 L1134,971 L1129,976 L1125,978 L1116,978 L1112,976 L1108,972 L1107,969Z M1118,951 L1111,953 L1104,958 L1101,965 L1101,969 L1104,976 L1111,981 L1122,984 L1122,1181 L1152,1206 L1160,1214 L1164,1216 L1173,1225 L1177,1227 L1187,1237 L1203,1249 L1213,1259 L1242,1283 L1244,1286 L1256,1295 L1256,1318 L1255,1319 L1255,1348 L1256,1349 L1255,1358 L1256,1360 L1283,1384 L1289,1388 L1291,1391 L1294,1392 L1303,1401 L1338,1429 L1340,1432 L1352,1441 L1353,1443 L1391,1473 L1399,1481 L1416,1494 L1459,1531 L1468,1537 L1469,1539 L1486,1552 L1488,1555 L1491,1556 L1519,1579 L1519,1600 L1518,1601 L1518,1833 L1515,1837 L1507,1842 L1500,1849 L1472,1872 L1471,1874 L1467,1876 L1458,1885 L1438,1901 L1437,1903 L1412,1923 L1411,1925 L1401,1932 L1400,1934 L1386,1946 L1376,1953 L1358,1969 L1329,1992 L1329,1996 L1330,1997 L1330,2040 L1331,2041 L1331,2047 L1330,2048 L1330,2065 L1331,2066 L1330,2068 L1330,2077 L1331,2078 L1331,2271 L1333,2271 L1333,2175 L1334,2174 L1334,2076 L1335,2073 L1354,2057 L1368,2043 L1382,2032 L1385,2028 L1418,2001 L1422,1996 L1431,1990 L1433,1987 L1439,1983 L1449,1973 L1490,1939 L1499,1930 L1504,1927 L1520,1912 L1524,1910 L1525,1908 L1525,1903 L1511,1916 L1497,1927 L1494,1931 L1480,1942 L1479,1944 L1466,1954 L1431,1986 L1402,2010 L1388,2024 L1384,2026 L1383,2028 L1360,2047 L1349,2058 L1335,2069 L1333,2068 L1333,2030 L1332,2029 L1333,2027 L1333,1993 L1367,1967 L1391,1947 L1392,1945 L1400,1940 L1402,1937 L1413,1929 L1414,1927 L1418,1925 L1427,1916 L1431,1914 L1432,1912 L1472,1879 L1499,1855 L1522,1837 L1525,1833 L1525,1829 L1524,1830 L1522,1829 L1522,1675 L1523,1674 L1523,1584 L1524,1583 L1524,1578 L1504,1561 L1486,1548 L1479,1541 L1469,1534 L1439,1508 L1423,1496 L1422,1494 L1410,1485 L1408,1482 L1399,1476 L1390,1467 L1379,1459 L1332,1419 L1327,1416 L1324,1412 L1303,1396 L1291,1384 L1264,1362 L1259,1356 L1260,1354 L1260,1294 L1214,1253 L1210,1251 L1202,1243 L1176,1222 L1175,1220 L1171,1218 L1164,1211 L1126,1180 L1126,984 L1133,980 L1138,975 L1140,965 L1136,957 L1132,954 L1123,951Z M1009,762 L1017,757 L1027,758 L1033,763 L1034,765 L1034,772 L1030,778 L1023,781 L1019,781 L1012,778 L1009,775 L1007,771 L1007,766 L1009,764Z M1014,753 L1008,756 L1003,761 L1001,766 L1002,775 L1006,780 L1015,785 L1026,785 L1031,783 L1036,785 L1042,792 L1061,807 L1071,817 L1096,838 L1101,841 L1139,873 L1157,886 L1169,897 L1180,904 L1184,908 L1184,1145 L1183,1146 L1184,1160 L1288,1248 L1288,1263 L1289,1264 L1289,1377 L1290,1377 L1291,1373 L1291,1269 L1292,1268 L1292,1247 L1264,1223 L1262,1220 L1238,1201 L1228,1191 L1188,1158 L1188,906 L1170,893 L1169,891 L1165,889 L1140,868 L1135,865 L1112,845 L1085,824 L1071,811 L1055,799 L1043,787 L1039,785 L1036,782 L1036,780 L1040,774 L1040,764 L1033,756 L1024,752Z M1234,623 L1242,622 L1246,623 L1251,627 L1253,631 L1253,636 L1247,643 L1243,645 L1235,645 L1231,643 L1227,639 L1226,631Z M1190,463 L1198,459 L1204,459 L1212,464 L1214,468 L1214,473 L1212,477 L1205,482 L1194,481 L1188,475 L1187,469Z M1194,455 L1188,458 L1184,462 L1182,466 L1182,475 L1184,479 L1189,484 L1199,487 L1212,485 L1300,558 L1300,831 L1306,837 L1312,841 L1314,844 L1334,860 L1345,871 L1358,881 L1358,899 L1359,900 L1359,904 L1358,905 L1358,922 L1359,923 L1359,930 L1356,933 L1342,941 L1308,958 L1306,956 L1306,882 L1304,879 L1290,869 L1281,860 L1272,854 L1270,851 L1264,847 L1256,839 L1246,832 L1246,799 L1245,798 L1245,669 L1244,668 L1244,650 L1252,646 L1257,641 L1258,639 L1258,628 L1252,621 L1245,618 L1233,618 L1231,620 L1227,621 L1223,625 L1220,630 L1220,637 L1223,643 L1233,649 L1240,649 L1241,650 L1241,793 L1242,794 L1242,831 L1249,839 L1266,852 L1275,861 L1302,883 L1302,1094 L1301,1095 L1301,1112 L1360,1162 L1366,1166 L1368,1169 L1390,1186 L1399,1195 L1409,1202 L1409,1304 L1408,1305 L1408,1357 L1409,1359 L1439,1383 L1443,1388 L1460,1401 L1487,1425 L1490,1426 L1491,1428 L1506,1440 L1508,1443 L1525,1456 L1525,1451 L1495,1427 L1486,1418 L1480,1414 L1479,1412 L1458,1396 L1448,1386 L1443,1383 L1412,1356 L1412,1344 L1413,1343 L1413,1330 L1412,1329 L1412,1319 L1413,1318 L1413,1201 L1408,1198 L1397,1187 L1392,1184 L1386,1178 L1383,1177 L1368,1163 L1362,1159 L1361,1157 L1308,1114 L1306,1111 L1306,1093 L1305,1092 L1305,1084 L1306,1083 L1306,1061 L1305,1060 L1306,1057 L1306,964 L1309,961 L1319,956 L1321,956 L1332,949 L1334,949 L1339,945 L1341,945 L1362,933 L1363,930 L1363,909 L1362,908 L1363,881 L1305,831 L1305,821 L1304,820 L1304,556 L1258,519 L1216,483 L1219,475 L1219,466 L1217,462 L1213,458 L1202,454Z" fill="#3D3F42" fill-rule="evenodd"/>
  <path d="M1100,2166 L1100,2171 L1101,2171 L1101,2166Z M1101,2145 L1101,2159 L1102,2159 L1102,2145Z M114,2102 L113,2104 L118,2108 L122,2109 L132,2116 L134,2116 L148,2124 L148,2271 L152,2271 L152,2123 L148,2119 L144,2118 L133,2111Z M1525,2044 L1516,2051 L1506,2061 L1475,2086 L1473,2089 L1453,2104 L1452,2106 L1433,2120 L1433,2128 L1436,2129 L1436,2132 L1433,2133 L1433,2142 L1435,2142 L1436,2145 L1432,2146 L1432,2158 L1433,2159 L1432,2162 L1432,2271 L1436,2271 L1436,2258 L1433,2257 L1433,2227 L1434,2226 L1436,2227 L1436,2234 L1437,2234 L1437,2123 L1464,2102 L1489,2080 L1493,2078 L1495,2075 L1501,2071 L1510,2062 L1514,2060 L1516,2057 L1525,2050Z M63,1921 L60,1922 L57,1927 L57,1930 L59,1930 L63,1926Z M265,1789 L271,1784 L281,1783 L287,1787 L290,1792 L290,1796 L282,1804 L272,1804 L265,1799 L264,1796Z M290,1781 L284,1778 L269,1778 L264,1781 L259,1786 L257,1791 L257,1796 L261,1804 L266,1808 L275,1811 L274,1813 L274,1857 L273,1858 L272,1902 L238,1929 L237,1931 L213,1950 L211,1953 L207,1955 L206,1957 L179,1979 L177,1982 L170,1987 L114,2037 L114,2070 L119,2074 L133,2078 L139,2078 L145,2076 L145,2073 L127,2073 L118,2068 L118,2039 L137,2023 L139,2020 L143,2018 L152,2009 L164,2000 L168,1995 L197,1971 L199,1968 L203,1966 L204,1964 L224,1948 L233,1939 L251,1925 L253,1922 L257,1920 L276,1904 L277,1902 L277,1875 L278,1874 L278,1817 L279,1816 L279,1811 L290,1807 L296,1800 L296,1796 L297,1795 L296,1789 L294,1785Z M1093,1767 L1093,1769 L1091,1771 L1154,1822 L1158,1827 L1172,1837 L1182,1847 L1182,1876 L1185,1877 L1185,1881 L1182,1882 L1182,1905 L1185,1906 L1185,1990 L1184,1991 L1182,1990 L1182,1969 L1181,1969 L1181,2070 L1168,2079 L1167,2081 L1164,2082 L1157,2089 L1137,2104 L1123,2117 L1119,2119 L1102,2135 L1099,2136 L1096,2140 L1097,2206 L1113,2220 L1114,2222 L1129,2234 L1130,2236 L1136,2240 L1138,2243 L1169,2268 L1171,2271 L1177,2271 L1102,2206 L1101,2204 L1102,2201 L1102,2173 L1101,2173 L1101,2192 L1100,2193 L1098,2192 L1097,2141 L1098,2140 L1102,2141 L1127,2118 L1144,2105 L1145,2103 L1175,2080 L1176,2078 L1185,2072 L1185,2026 L1186,2025 L1186,1844Z M1367,1739 L1367,1748 L1368,1748 L1368,1739Z M1348,1698 L1346,1701 L1363,1714 L1363,1732 L1364,1732 L1364,1717 L1368,1716 L1367,1712 L1363,1710 L1353,1701Z M1202,1658 L1202,1668 L1199,1669 L1199,1674 L1216,1687 L1218,1690 L1229,1698 L1236,1705 L1239,1706 L1250,1716 L1266,1728 L1275,1737 L1279,1739 L1285,1745 L1298,1754 L1298,1891 L1299,1894 L1289,1903 L1282,1907 L1281,1909 L1275,1913 L1276,1915 L1281,1915 L1288,1908 L1305,1896 L1331,1875 L1335,1873 L1337,1870 L1340,1869 L1349,1862 L1350,1860 L1353,1859 L1362,1851 L1369,1847 L1370,1845 L1368,1842 L1366,1843 L1364,1842 L1364,1739 L1363,1739 L1363,1842 L1364,1845 L1354,1853 L1347,1857 L1346,1859 L1342,1861 L1333,1869 L1325,1874 L1306,1890 L1304,1890 L1303,1888 L1300,1889 L1299,1888 L1299,1880 L1302,1879 L1302,1875 L1299,1874 L1299,1756 L1300,1755 L1302,1756 L1302,1777 L1303,1777 L1303,1754 L1302,1752 L1295,1748 L1294,1746 L1289,1743 L1288,1741 L1275,1730 L1267,1725 L1257,1715 L1244,1706 L1237,1699 L1211,1678 L1203,1673 L1203,1658Z M1289,1654 L1294,1649 L1305,1648 L1311,1651 L1314,1656 L1314,1661 L1309,1667 L1305,1669 L1297,1669 L1293,1667 L1288,1661Z M1201,1645 L1201,1654 L1202,1654 L1202,1645Z M1283,1651 L1282,1663 L1285,1668 L1290,1672 L1295,1673 L1298,1675 L1306,1675 L1313,1672 L1343,1698 L1346,1696 L1335,1685 L1331,1683 L1330,1681 L1324,1677 L1317,1670 L1317,1668 L1320,1663 L1320,1654 L1319,1651 L1314,1646 L1305,1642 L1296,1642 L1288,1646Z M1183,1563 L1190,1556 L1201,1556 L1207,1560 L1209,1564 L1209,1568 L1207,1572 L1203,1575 L1195,1577 L1188,1575 L1183,1570Z M1190,1550 L1182,1554 L1179,1557 L1176,1563 L1176,1570 L1178,1572 L1178,1574 L1182,1578 L1187,1581 L1194,1582 L1196,1584 L1196,1595 L1197,1596 L1197,1647 L1198,1647 L1198,1636 L1201,1635 L1200,1583 L1202,1581 L1205,1581 L1213,1574 L1215,1570 L1215,1563 L1212,1557 L1207,1553 L1199,1550Z M925,1521 L931,1520 L938,1522 L943,1527 L943,1536 L938,1540 L933,1542 L924,1541 L918,1535 L918,1527Z M53,1520 L59,1515 L69,1515 L77,1523 L77,1528 L74,1533 L71,1535 L65,1537 L57,1535 L53,1531 L51,1527 L51,1524Z M919,1517 L915,1520 L911,1527 L911,1534 L915,1542 L921,1546 L929,1547 L930,1548 L937,1547 L941,1545 L944,1546 L948,1551 L955,1556 L957,1559 L964,1564 L974,1574 L980,1578 L982,1581 L994,1590 L995,1592 L1001,1596 L1023,1616 L1049,1637 L1049,1690 L1052,1691 L1052,1729 L1051,1730 L1049,1729 L1049,1710 L1048,1710 L1048,1735 L1049,1737 L1053,1739 L1061,1747 L1066,1750 L1086,1767 L1089,1768 L1091,1765 L1053,1735 L1053,1635 L947,1545 L946,1542 L950,1534 L950,1528 L949,1524 L946,1520 L940,1516 L932,1514 L924,1515Z M58,1509 L55,1510 L47,1516 L44,1522 L44,1529 L47,1535 L52,1539 L56,1541 L59,1541 L61,1546 L60,1674 L72,1686 L92,1703 L93,1705 L113,1721 L113,1846 L98,1858 L81,1880 L80,1883 L78,1884 L77,1888 L66,1904 L64,1915 L67,1915 L71,1903 L79,1892 L79,1890 L81,1889 L89,1878 L89,1876 L94,1869 L111,1852 L117,1848 L117,1777 L114,1776 L114,1767 L117,1766 L117,1720 L77,1685 L73,1680 L67,1676 L65,1673 L65,1543 L69,1541 L75,1540 L82,1534 L84,1530 L84,1522 L81,1516 L73,1510 L70,1509Z M1203,1338 L1203,1353 L1204,1353 L1204,1338Z M1203,1330 L1203,1334 L1204,1334 L1204,1330Z M1063,1140 L1063,1149 L1066,1150 L1066,1156 L1063,1157 L1063,1163 L1062,1164 L1062,1204 L1199,1320 L1199,1361 L1200,1362 L1199,1364 L1199,1377 L1236,1409 L1242,1413 L1244,1416 L1248,1418 L1249,1420 L1256,1425 L1264,1434 L1268,1435 L1287,1451 L1288,1453 L1299,1462 L1302,1463 L1311,1472 L1323,1481 L1324,1483 L1326,1483 L1330,1488 L1342,1498 L1346,1500 L1348,1503 L1353,1506 L1360,1513 L1364,1515 L1371,1522 L1374,1520 L1375,1521 L1374,1524 L1379,1529 L1384,1532 L1402,1548 L1413,1556 L1415,1559 L1439,1578 L1446,1585 L1452,1589 L1454,1592 L1457,1593 L1464,1599 L1464,1637 L1463,1638 L1464,1640 L1464,1811 L1438,1832 L1429,1841 L1425,1843 L1416,1852 L1413,1853 L1396,1869 L1391,1872 L1390,1874 L1365,1894 L1356,1903 L1344,1912 L1335,1921 L1330,1924 L1288,1961 L1288,1968 L1291,1969 L1291,1983 L1288,1984 L1288,2122 L1265,2141 L1251,2155 L1247,2157 L1231,2173 L1232,2239 L1270,2271 L1275,2271 L1251,2250 L1235,2238 L1235,2174 L1292,2123 L1292,1963 L1313,1944 L1332,1929 L1334,1926 L1338,1924 L1339,1922 L1358,1907 L1360,1904 L1364,1902 L1373,1893 L1397,1874 L1399,1871 L1424,1851 L1434,1841 L1444,1834 L1468,1813 L1468,1598 L1467,1596 L1458,1590 L1456,1587 L1432,1568 L1431,1566 L1406,1546 L1405,1544 L1394,1536 L1387,1529 L1383,1527 L1381,1524 L1370,1516 L1369,1514 L1332,1483 L1329,1482 L1320,1473 L1315,1470 L1309,1464 L1305,1462 L1296,1453 L1279,1440 L1278,1438 L1266,1429 L1265,1427 L1259,1423 L1252,1416 L1246,1412 L1204,1376 L1203,1357 L1200,1356 L1200,1328 L1203,1327 L1203,1317 L1192,1309 L1157,1278 L1140,1265 L1138,1262 L1114,1243 L1112,1240 L1103,1234 L1093,1224 L1083,1217 L1066,1202 L1067,1140Z M960,1039 L967,1036 L976,1038 L982,1045 L982,1050 L977,1056 L973,1058 L965,1058 L961,1056 L956,1050 L956,1045Z M951,1039 L949,1049 L951,1055 L957,1061 L964,1064 L975,1064 L982,1060 L986,1060 L991,1062 L993,1064 L1019,1076 L1024,1081 L1029,1084 L1031,1087 L1035,1090 L1037,1090 L1045,1098 L1062,1110 L1064,1113 L1066,1113 L1067,1114 L1067,1135 L1068,1135 L1068,1110 L1042,1089 L1040,1089 L1037,1085 L1033,1083 L1020,1071 L1004,1064 L1001,1067 L1000,1066 L1001,1063 L999,1063 L998,1065 L995,1064 L994,1062 L996,1060 L991,1059 L987,1056 L989,1051 L989,1045 L988,1041 L985,1037 L978,1032 L968,1030 L956,1034Z M1411,779 L1415,775 L1419,773 L1429,773 L1436,779 L1437,784 L1435,789 L1428,794 L1419,794 L1415,792 L1411,788Z M1418,767 L1411,770 L1405,776 L1403,781 L1403,786 L1405,791 L1410,796 L1415,799 L1423,801 L1423,841 L1426,842 L1426,917 L1423,918 L1422,920 L1423,934 L1408,948 L1402,952 L1390,964 L1381,970 L1380,972 L1363,986 L1361,1091 L1368,1098 L1375,1103 L1376,1105 L1385,1111 L1386,1113 L1405,1128 L1407,1131 L1411,1133 L1413,1136 L1418,1139 L1467,1181 L1467,1217 L1466,1218 L1466,1379 L1477,1392 L1479,1393 L1496,1417 L1505,1427 L1507,1431 L1512,1432 L1514,1430 L1504,1420 L1501,1415 L1499,1414 L1493,1404 L1491,1403 L1481,1389 L1470,1378 L1471,1376 L1471,1361 L1470,1360 L1470,1349 L1471,1348 L1471,1194 L1468,1193 L1468,1188 L1471,1187 L1471,1182 L1468,1181 L1468,1179 L1470,1177 L1465,1174 L1462,1170 L1452,1163 L1451,1161 L1438,1151 L1431,1144 L1426,1141 L1387,1107 L1366,1091 L1367,988 L1384,975 L1398,961 L1403,958 L1421,942 L1427,935 L1427,821 L1428,820 L1428,801 L1440,794 L1444,786 L1444,781 L1439,772 L1433,768 L1430,767Z M1049,523 L1053,523 L1054,522 L1059,523 L1065,528 L1066,536 L1061,542 L1056,544 L1051,544 L1046,542 L1040,535 L1040,532 L1043,527Z M1047,517 L1036,524 L1034,528 L1034,539 L1036,542 L1044,548 L1054,549 L1055,550 L1061,549 L1064,558 L1067,562 L1123,607 L1123,617 L1124,617 L1124,610 L1125,609 L1127,610 L1126,706 L1125,707 L1123,706 L1123,649 L1122,649 L1122,786 L1242,884 L1242,1122 L1241,1123 L1241,1136 L1243,1139 L1253,1146 L1264,1157 L1273,1163 L1275,1166 L1286,1174 L1288,1177 L1299,1185 L1306,1192 L1312,1196 L1314,1199 L1335,1215 L1337,1218 L1345,1224 L1346,1227 L1349,1228 L1348,1230 L1346,1230 L1346,1236 L1345,1237 L1345,1376 L1357,1387 L1362,1390 L1373,1400 L1377,1402 L1384,1409 L1388,1411 L1402,1424 L1405,1425 L1407,1428 L1427,1443 L1444,1458 L1459,1469 L1466,1476 L1476,1483 L1477,1485 L1491,1495 L1508,1510 L1525,1523 L1525,1517 L1516,1511 L1498,1495 L1484,1485 L1483,1483 L1479,1481 L1470,1472 L1457,1463 L1444,1451 L1425,1437 L1417,1429 L1402,1418 L1389,1406 L1381,1401 L1350,1375 L1350,1223 L1326,1202 L1316,1195 L1307,1186 L1301,1182 L1281,1164 L1277,1162 L1258,1145 L1256,1145 L1254,1142 L1245,1136 L1246,1134 L1246,1086 L1247,1085 L1247,898 L1246,897 L1247,882 L1181,829 L1180,827 L1171,821 L1164,814 L1160,812 L1153,805 L1145,800 L1144,798 L1127,785 L1128,606 L1078,565 L1075,564 L1069,558 L1068,553 L1066,550 L1066,547 L1073,540 L1074,536 L1074,530 L1071,524 L1065,519 L1060,517Z" fill="#D6A61A" fill-rule="evenodd"/>
</svg>
